<?xml version="1.0" encoding="utf-8"?>
<!-- Generator: Adobe Illustrator 21.1.0, SVG Export Plug-In . SVG Version: 6.00 Build 0)  -->
<svg version="1.1" id="Layer_1" xmlns="http://www.w3.org/2000/svg" xmlns:xlink="http://www.w3.org/1999/xlink" x="0px" y="0px"
	 viewBox="0 0 500 500" style="enable-background:new 0 0 500 500;" xml:space="preserve">
<style type="text/css">
	.st0{fill:#2B3990;}
	.st1{fill:#2E3192;}
	.st2{fill:none;}
</style>
<g>
	<g>
		<path class="st0" d="M325.2,235.6c-13.9,0.3-23.6,9.6-35.4,13.7c4,0,8,0,12.9,0c-2.5,2.2-4.5,3.9-7.1,6.2
			c7.8,1.3,14.1-1.3,20.5-4.4c-3,4.9-7.6,7.8-12.6,11.1c3,0.2,6,0.5,9.1,0.7c-0.8,2.7-3.5,2.7-5.7,3.7c-1.5,0.7-2.9,1.6-4.4,2.4
			c1.5,1,3,2,4.6,3c0.5,0.3,1.2,0.5,1.9,0.8c-2.2,5.9-8.3,5.8-12.8,8.1c0.1,0.3,0.1,0.5,0.2,0.8c1.8,0.3,3.6,0.6,6.3,1
			c-2.1,2.7-3.6,5.3-5.7,7.1c-2.4,2.1-3.5,3.7-0.4,5.6c-2.8,3.9-5.5,7.7-8.6,12c3.4,3.4,6,7,9.5,9.5c6.9,5,14.1,9.8,21.5,14
			c10.4,5.9,21.9,9,33.7,11c1,0.2,2,0.3,2.9,0.8c0.9,0.5,1.7,1.4,2.5,2.1c-0.9,1-1.6,2.6-2.8,2.9c-1.5,0.5-3.4,0.3-4.9-0.1
			c-8.2-2.6-16.7-4.5-24.4-8.2c-10.5-5-20.4-11.1-30.3-17.2c-4.2-2.5-7.7-6.2-11.6-9.2c-2.5-1.9-5.3-3.2-9.2-2.3
			c2.5,2.2,4.4,4.4,6.8,6.1c7.4,5.2,14.9,10.1,22.4,15.1c7.6,5.1,15.8,9,24.5,11.8c5.7,1.9,11.5,3.7,17.2,5.5
			c2.2,0.7,4.4,1.5,6.7,2.2c-2.5,4.3-5.3,5.4-9.5,3.6c-7.1-2.9-14.4-5.5-21.2-9c-7.8-4.1-15.2-9.1-22.8-13.6
			c-0.4-0.3-0.9-0.4-1.8-0.2c0.7,1,1.3,2.2,2.2,2.9c3.2,2.3,6.3,4.8,9.8,6.6c8.7,4.5,17.5,8.7,26.2,13.1c2.4,1.2,4.7,2.7,6.9,4.9
			c-2.5-0.2-5.1-0.1-7.6-0.7c-6.8-1.6-12.7-5.1-18.4-9.1c-4.9-3.4-10-6.4-15.1-9.5c-2-1.2-4.1-2.3-6.7-3c0.5,0.8,0.8,1.9,1.5,2.5
			c3.6,2.8,7,5.7,10.9,8c7.3,4.2,14.9,7.9,22.4,11.8c0.8,0.4,1.6,1,2.6,1.6c-2.3,2.5-4.9,1.9-6.9,0.8c-6.2-3.3-12.3-6.8-18.3-10.3
			c-2.9-1.7-5.6-3.6-8.6-5.1c5.7,8.1,15.7,10.3,23,16.1c-0.2,0.4-0.3,0.8-0.5,1.2c-2.3-0.5-5-0.5-7-1.6c-6.5-4-12.8-8.4-19.2-12.5
			c-2.5-1.6-4.8-3.2-8.2-2.8c-1.9,0.2-4.2-1-5.8-2.3c-2.3-1.9-8.7-3.4-11.1-1.9c-0.6,0.3-0.9,1.2-1.1,1.9c-0.6,2.4-1.2,4.7-1.6,7.1
			c-0.7,5.4-3.9,8.9-8.1,11.9c-1.2,0.9-2.7,2-3.1,3.3c-0.7,2.3-1.3,4.1-4.1,4.4c-0.4,0.1-0.9,1.5-1,2.4c-0.1,2.3,0,4.5,0,6.8
			c-0.3,0-0.6,0.1-0.9,0.1c-1.2-1.7-2.3-3.4-3.5-5.2c-3.2,2.8-4.1,7.4-2,11.7c1.6,3.2,0.5,5.2-1.9,6.8c-2.6,1.7-5.2,3.7-9.3,2.8
			c2.2-7,1.1-12.8-6.8-14.9c-2.2-0.6-5.2-0.8-7,0.2c-1.8,1-2.5,3.9-4.1,6.5c-1.5-2.1-2.9-3.9-4.6-6.2c-0.3,1.6-0.5,2.8-0.7,4.1
			c-3.1-1-4.2-3-4.7-9.4c-1.3,1.6-2.2,2.8-3.1,4c-0.3,0-0.7,0-1,0c-0.4-3.6-0.8-7.1-1.2-11.1c-1,1.4-1.9,2.8-2.9,4.1
			c-1.8-4.3-0.2-10.9,3.3-13.5c3.2-2.4,8.8-1.8,12.6,1.4c3.1,2.6,6.1,2.2,8.9-0.7c6-6,7.3-13.7,8.3-21.5c0.4-2.7,0.3-5.5,0.4-8.3
			c0.2-4.2-0.3-8.1-3.3-11.4c-0.9-0.9-1.4-2.3-1.7-3.6c-0.5-2.8-2.2-4-4.6-5.4c-2.4-1.4-4.3-4.3-5.6-7c-3.3-6.9-8-9.7-15.3-8.5
			c-4.8,0.7-7.4,4-9.3,8c-0.6,1.3-1,2.7-1.5,3.9c-5.4,0.8-8.6-3.1-10-7.5c-2.1-6.3-0.9-12.2,3.5-17.4c1.3-1.6,2.5-3.4,3.1-5.4
			c1.8-5.5,6.7-7.6,11.2-9.5c4.5-1.9,9.6-2.4,14.5-3.4c4.1-0.8,8.2-1.2,12.7-1.9c-0.7-4.9-1.3-9.9-2.2-14.9
			c-0.1-0.7-1.7-1.7-2.7-1.7c-13.5-1-27-1.9-41.1-2.8c0,3.6,0,7.5,0,11.4c0,6.5-0.5,6.9-6.9,5.5c-0.8-0.2-1.7-0.3-2.7-0.4
			c-0.2,0.6-0.4,1-0.4,1.4c0.5,24.6,1.5,49.3,5.8,73.6c2.8,15.9,7.3,31.3,15.9,45.1c4.6,7.4,10.2,14.1,15.9,20.6
			c8.8,10,19.9,17,31.3,23.8c5.3,3.1,10.4,5.6,16,2.3c8.9-5.2,17.3-11.3,24.2-19.1c3.4-3.9,6.8-7.8,10-11.8
			c7.1-8.9,12.5-19,17.2-29.4c0.7-1.6,1.6-3.1,2.5-4.9c9.9,7.2,20.4,7.6,31.3,2.7c0.2,0.2,0.4,0.5,0.6,0.7
			c-2.8,5.5-5.1,11.3-8.5,16.4c-7.5,11.4-15.2,22.7-23.6,33.5c-5.8,7.4-12.7,14.1-19.6,20.5c-7.5,7-15.4,13.7-23.7,19.8
			c-7.1,5.2-15.1,9.3-24.4,6c-3.7-1.3-7-3.6-10.3-5.8c-4.3-3-8.6-6.1-12.6-9.5c-8.2-7-16.2-14.1-24.1-21.4c-4.2-3.9-8-8.1-11.8-12.4
			c-15.4-17.4-27.7-36.8-32.5-59.9c-2.4-11.8-3.4-23.9-4.4-36c-1.6-19.5-2.7-38.9-4-58.7c-1.2,0-2.7,0-4.4,0
			c-1,16.6-0.3,33.5-6.4,49.4c-3.8-15.6-3.3-31.4-3.3-47.7c-5.4,1.4-10.4,2.7-15.8,4.2c-3.7-19.1-3.2-37.8-3.8-56.1
			c-2.6-0.7-4.9-1.4-7.2-1.8c-5.6-0.9-7.3-5-7.8-9.8c-0.9-9,0.4-17.5,6.3-24.7c2-2.4,4.9-4.1,7.2-6.3c0.9-0.9,1.7-2.4,1.9-3.7
			c0.3-1.8,0.1-3.8,0.1-5.7c0.1-6.4,2.4-9.7,8.7-11.3c8-2,16.2-3.4,24.6-3.3c1.7,0,3.3,0,4.9,0c-2.1-13.1-4.2-26-6.3-38.6
			c6.2,1.6,11.7,3,17.2,4.5c8.7,2.4,17.6,2.3,26.3,1.2c8.6-1.1,17.1-3.2,25.7-4.8c0.8-0.1,1.5-0.3,3-0.5c-1.1,6.4-2,12.4-3.1,18.5
			c-0.5,2.7-1.7,5.3-2.2,8c-1,5.1-3.7,6.7-9.8,7c-6.7,0.3-13.3,0.3-20,0.2c-2.9,0-4,0.9-3.7,3.8c0.2,3.1-0.6,6.2,3.3,8.1
			c2.9,1.4,3.2,4.9,3.1,7.9c-0.2,3,1.3,4,3.9,4.7c9,2.2,18.1,2.8,27.9,2.6c-0.5-3.5-0.5-6.8-1.4-9.8c-3.1-10.4-1.3-20.3,1.7-30.4
			c6.8-22.5,5.5-44.4-4.6-65.7c-2.7-5.8-5.2-11.7-7.8-17.5c3.9-1.3,7.9,0.6,10.8,4.2c6.8,8.6,9.9,18.9,14.4,28.7
			c1.2,2.6,2.4,5.2,3.9,7.7c2.3-12.7-1.8-25-2.6-38.1c5.3,3.5,8.6,7.8,9.9,13.2c1.8,7.5,2.8,15.2,4.2,22.8c0.2,1.2,0.5,2.3,0.8,3.6
			c3.5-2.9,4-13.5,2.8-26.7c1.5,1.8,2.7,3.2,4.4,5.3c2.9-10.7,0.6-20.7-0.1-30.7c0.3,0,0.6-0.1,0.8-0.1c1,5.1,2.4,10.2,3.1,15.4
			c2.6,19.3-1.4,37.7-9.1,55.4c-4.5,10.4-9,20.9-13.8,31.2c-4.6,9.9-4.6,19.7-0.8,29.7c0.8,2.1,1,4.5,1.6,7.2
			c-17.2,1-33.6-2.5-50.6-5.2c-0.6,10.4-1.7,20.3-1.5,30.3c0.3,14,1.5,27.9,2.5,41.8c0.1,1,1.4,2.6,2.4,2.8
			c9.7,2.3,19.4,4.6,29.4,4.4c13.6-0.3,27.3-0.3,40.9-1.5c15.6-1.4,31.3-3.4,46.7-6c14.7-2.5,29.4-4,44.2-3.7
			c4.2,0.1,8.5,0.4,12.5,1.5c4,1.2,7.6,3.5,11.4,5.4c0.3-5.9,0.5-12.2,1-18.5c1.2-13.9,4.9-27.2,9.7-40.2c1.2-3.3,2.1-7.1,1.9-10.6
			c-0.4-6.3-5.5-9.6-10.7-10.7c-6.7-1.4-13.9-1.5-20.8-1.3c-7,0.1-13.9,1-20.9,1.9c-12.4,1.5-24.7,3.3-37.1,4.9
			c-1.3,0.2-2.5,0.2-4.1,0.3c3.3-4,6.4-7.6,9.4-11.2c-0.4-0.4-0.7-0.8-1.1-1.2c-3.5,2.4-7.7,4.1-10.2,7.2
			c-5.1,6.4-11.3,9.2-19.2,9.1c-2.4,0-4.8,0-8.2,0c4.2-7.4,9.1-13,14.8-17.9c5.7-4.8,11.5-9.4,17.2-14.3
			c-8.4,2.6-16.6,5.7-22.4,12.8c-4.6,5.6-8.9,11.5-13.5,17.1c-1,1.3-2.8,2.6-4.3,2.7c-5.4,0.3-10.8,0.1-16.3,0.1
			c0.5-6.6,6.6-11.9,3.3-19.7c-1,2.9-1.8,5-2.9,8.3c-0.8-2.5-1.5-4.1-1.8-5.8c-1.1-7.1-0.6-14.1,2.6-20.7c1.8-3.6,3.8-4.9,6.8-4.3
			c2.8-8.5,6-16.9,8.4-25.5c6.8-24.2,9.7-48.7,3-73.5c-0.1-0.4,0-0.9,0-1.8c9.7,12.1,11.6,26.1,13.1,40.4
			c6.7-11.4,6.6-24.7,10.4-37.5c2.3,7,2.2,13.6,1.3,20.1c-1.7,11.9-6.8,22.6-11.3,33.5c-3.2,7.8-6.2,15.6-8.9,23.6
			c-1.5,4.4-1.6,8.9,0.8,13.5c1.3,2.6,0.7,6.2,0.6,9.4c0,1.6-0.7,3.2-0.5,5.2c2.1-2.4,4.5-4.6,6.1-7.4c5.8-10,11.4-20.1,17-30.3
			c4.6-8.4,9-16.9,13.9-25.3c1.2,10.2-0.1,20.2-0.9,30.8c2.5-1.9,5-3.8,7.6-5.7c0.2,0,0.4,0.1,0.6,0.1c-1.5,2.8-2.7,5.9-4.7,8.4
			c-3.1,3.9-6.5,7.4-10.1,10.9c-9.1,8.7-18.5,17.2-27.6,26c-3.5,3.4-6.4,7.3-9.4,11c-0.7,0.8-1,1.8-1.2,3
			c15.7-18.2,36.8-30.8,51.9-50.3c-1.6,10.3-9.8,16.4-13.9,26.2c5.3-1,9.7-1.8,14.2-2.6c-0.6,7.9-4.3,14.8-9.8,21
			c3.6-1.3,7.3-2.5,11.8-4.1c-1.3,5-2.4,9.1-3.6,13.7c10.4-1,20.9-2,31.4-3.1c0-7.2,0-14.1,0-21.4c-9.1,0-17.8,0-27,0
			c0-3.8,0-7.2,0-11.2c-3.3,1.5-6.1,2.7-9.1,4.1c2.9-6,5.5-11.4,8-16.9c0.9-1.8,1.9-2.4,4.2-2c14.1,2.8,28.3,2,42.4-0.4
			c3.7-0.6,7.3-2.3,11.5-3.6c0.8,16.7-3.3,32.4-5.4,48.4c4.7,0.9,9.4,1.5,13.8,2.8c3.3,0.9,6.7,2.2,9.6,4.1
			c7.1,4.7,6.7,11.5,4.7,18.7c-0.5,1.7-0.8,3.5-1.5,5.1c-1.4,3,0.3,4.8,2.1,6.8c3.5,3.9,6.9,8,9.9,12.3c2.3,3.3,1.8,7-0.4,10.3
			c-7.5,11.4-11.1,24.1-12.3,37.5c-0.5,5.3-0.4,10.6-0.6,16c0,0.2,0,0.4,0,0.7c-0.7,9.6-3.1,11.9-10.1,13.5
			c-1.5,7.3-3,14.5-4.6,22.1c-3.1-2.8-4.7-7.4-5.5-15.5c-0.5-5.3-0.6-10.6-0.9-15.9c-5.5,0.5-5.6,0.6-5.5,5.7
			c0.4,17,0.1,34-2.8,50.8c-0.3,1.7-1,3.5-1.1,5.2c-0.1,3.4-1.8,4-4.5,3c-7.4-2.6-14.8-5.1-22.1-7.9c-0.7-0.3-1.6-2-1.4-2.8
			c4.6-19.6,4.4-39.7,4.8-59.6C325.4,255.5,325.2,245.9,325.2,235.6z M109.9,162.3c3.6-1,6.8-1.8,9.9-2.8c6.5-2,12.8-4.7,19.4-6.1
			c5.7-1.2,11.2,1.5,16.5,3.7c0.7,0.3,1.4,0.7,1.9,1.3c8.5,9,11.9,19.6,9.7,31.7c-1.4,7.6-5.6,13.1-13.7,14.8
			c-0.8,0.2-1.6,0.5-3.6,1.1c15,10.4,17.1,25.4,17.9,40.6c-8.7-1.8-17.4-3.5-26.6-5.4c1.7-1,3.1-1.8,5-2.8
			c0.3-8.8,1.2-18.1-3.2-26.9c-1.6-3.2-3.9-4.2-7.9-3.4c0,14.9,0,29.8,0,44.7c12.2,0.5,24.6,1,37.3,1.6c0-34.4,0-68.7,0-103
			c-5.2-1.4-10.3-3.4-15.6-4.1c-8.9-1.1-17.9-1.7-26.8-1.9c-6-0.1-11.9,0.9-17,4.5c-1.2,0.8-2.8,2-2.9,3.2
			C109.6,155.8,109.9,158.7,109.9,162.3z M244.7,253.8c3.7,6.3,2.5,12.1,1.1,17.8c-0.6,2.4-1,4.8-1.5,7.8c3.3-0.9,5.4-2,6.2-4.9
			c0.9-3.5,2-7,3-10.5c2.1-7.1,8.9-12.7,16.1-12.4c-1.7,1.9-3.1,3.3-4.7,5.1c2.5,5.1,2.2,10.3-2.6,14.8c1.5,0.7,2.5,1.3,3.5,1.6
			c3.5,1.3,5.2,0.5,6-3.2c0.2-0.9,0.2-1.8,0.3-2.6c0.7-4.9,1.3-9.8,2-14.7c0.5-3.5,1.2-7,1.9-10.6c-6.3-0.7-10.4,0.7-13.2,4
			c-2.8,3.3-5.7,4.3-8.9,3.6c1.1-1.1,2.6-2.6,4.2-4.1c-0.3-0.4-0.7-0.8-1-1.2c-8.6-1.2-17-0.1-25.4,1.7c-1.9,0.4-3.3,1.8-2.6,4.4
			c0.8,3.3,1.2,6.8,1.5,10.2c0.4,3.7,0.8,7.5-1.3,11.1c-1.9-0.5-3.8-0.9-5.5-1.5c-8.2-2.9-16.3-2.8-24.5,0.3
			c-3.6,1.4-6.9,3.1-8.4,6.9c-0.9,2.3-0.7,4.3,2.2,5.3c0.8-3.4,1.7-6.6,6-6.9c-0.1,1.2-0.2,2.2-0.3,3.4c2.3-0.4,4.2-0.8,6.2-1.1
			c3.1-0.5,6.1-1.1,8-4c0.3-0.5,1.8-0.7,2.5-0.4c3.3,1.5,6.5,3.1,9.6,5c1,0.6,2,1.9,2.2,3.1c0.8,3.8,1.2,7.6,1.7,11.4
			c0.6,4.4,2.4,6.5,6.9,6.6C233.2,283.6,239.9,269.3,244.7,253.8z M124.7,254.4c0-1.5,0.1-2.5,0-3.5c-1.4-20.2-2.7-40.5-4.2-60.7
			c-0.5-6.1-1.6-12.1-2.4-18.1c-0.4-2.8-2.7-3.1-4.7-3.2c-1.1-0.1-3.1,0.9-3.4,1.7c-0.7,2.7-0.8,5.4,1.9,7.5
			c6.7,5.4,7.6,14.9,2.3,20.6c-1.8,2-4.3,4.3-4.4,6.6c-0.8,15.9-1,31.9,1.5,47.8c0.5,3.2,2.2,4.4,5.4,3.7
			C119.4,256.2,122,255.2,124.7,254.4z M377,191.6c-1.9,5.1-4.4,9.4-4.9,13.9c-1.5,11.6-2.1,23.4-3.1,35c-0.3,3.7-0.3,7.6-0.9,11.2
			c-0.9,4.8-4.6,7.5-9.5,7.3c-2.1-0.1-4.1-0.5-6.4-0.8c0,3,0,5.8,0,8.9c8-0.9,14.1-8.6,22.8-5.2c0.1-0.9,0.3-1.4,0.3-1.9
			c0.6-16.8,3.9-32.9,11.3-48.1c2.2-4.5,3-9-0.5-13C383.9,196.3,380.7,194.5,377,191.6z M236.9,394.3c5.5-1.6,6.4-2.9,4.5-7.8
			c-2.4-6.2-2.5-12.1-0.2-18.4c3.1-8.4,5.5-17,8.1-25.5c0.4-1.2,0.4-2.6,0.3-3.9c-0.2-3.4-0.6-6.9-0.9-10c-0.6,0.9-1.9,2.3-2.3,3.9
			c-1.6,5.6-3.4,11.2-4.4,17c-1.4,8.8-1.2,18-8.9,24.8c-0.1,0-0.8-0.1-1.4-0.5c-4.6-3-9.9-3.3-15.2-3.6c-1.6-0.1-3.1-1.2-4.6-1.8
			c-1.2-0.5-2.6-1.5-3.7-1.3c-3.9,0.9-6.5,5.6-5.8,9.7c1.7-0.9,3.4-1.8,5.4-2.8c0,3.1,0,5.8,0,9.4c1.4-2.6,2.3-4.3,3.5-6.3
			c1.1,2.9,1.9,5,2.9,7.5c6.3-8.3,7-7.1,15.8-4C236.1,382.8,237.8,386.2,236.9,394.3z M135.4,204c8.4,0.2,12.2-2.8,13.9-10.4
			c2.2-9.8,0.6-18.8-4.4-27.5c-1.2-2.2-2.2-4.6-5.1-4.5c-3.1,0.1-4.1,2.6-5,5.1c-0.4,0.9-0.7,1.9-0.7,2.9
			C134.5,181,134.9,192.4,135.4,204z M352,236.1c0,4.6-0.1,9.1,0.1,13.6c0.1,1,1.1,2.3,2.1,2.9c1.4,0.8,3.1,1.2,4.7,1.5
			c3.7,0.7,5.7-1.1,5.8-4.8C364.7,244.4,359.7,235.8,352,236.1z M197.4,286.1c-3.1-0.7-5.6-1.3-8-1.7c-0.8-0.1-2.1,0.2-2.5,0.8
			c-1.5,2-3,4.2-3.8,6.5c-1.5,4.3,0.1,8.2,3.4,10C190.1,296.5,193.7,291.4,197.4,286.1z M105.5,172.6c-2.2,1.5-4.2,2.5-5.8,4
			c-5,4.6-4.6,10.4-2.9,16.3c1.3,4.5,3.9,6.1,8.7,5.3c-0.2-4.1-0.2-4.1-3.5-6.5c-2.3-1.7-2.7-4.2-1.9-6.5c0.8-2.3,2.3-4.5,3.9-6.3
			C105.6,177.2,106.6,175.7,105.5,172.6z M360.6,275.2c2.2-0.3,4.1-0.4,6-0.7c1.6-0.3,3.3-0.4,4.8-1c3.4-1.3,3.9-4.5,1.2-7
			c-2-1.9-10.9-0.1-11.9,2.5c-0.1,0.2-0.1,0.4-0.1,0.7C360.6,271.4,360.6,273.4,360.6,275.2z M229.4,358c0.1,0.1,0.3,0.2,0.4,0.3
			c0.8-1,1.7-1.9,2.2-3c2.1-4.5,3.8-9.1,6-13.6c1.7-3.4,1.8-6.3-1.2-9.4C234.3,341.1,231.8,349.6,229.4,358z M362.8,294.3
			c0.4,0,0.9,0,1.3,0c0.5-4.6,0.9-9.2,1.4-13.9c-4.5,0.7-4.5,3.3-4.1,6C361.9,289.2,362.4,291.7,362.8,294.3z"/>
		<path class="st1" d="M349.1,178.6c2.3-4.9,5.5-8.6,10.5-10.9c3.4,5.1,6.6,10,6.2,16.5c-0.4,6.7,0.7,13.7-0.6,20.2
			c-1.2,5.7-4.9,11-7.6,16.4c-1,2-2.5,1.1-3.5,0c-1.6-1.7-2.9-3.7-4.4-5.7c-2.8,3.5-5.4,6.8-8.8,10.9c-2-2.9-3.8-5.4-5.6-7.9
			c-3.9,3.5-6.8,6.1-9.7,8.7c-1.2-1.5-2-2.3-2.8-3.3c-2.1,1-4.2,1.9-6.5,3c-4-3.9-6-8.7-6.3-14.1c0-0.7,0.1-1.7,0.6-2.1
			c3-2.4,6.2-4.6,9.3-6.9c0.3,0.3,0.5,0.5,0.8,0.8c-0.5,1.9-1.4,3.7-1.5,5.6c-0.2,2.7,0,5.4,0.5,8.1c0.1,0.8,1.8,1.3,2.8,2
			c0.6-0.8,1.6-1.7,1.6-2.5c0.1-8.3,0.1-16.6,0.1-24.9c-4.3,0.8-7.2,3.6-9,8.6c-5.3-2.8-5.8-6.5-1.4-10.1c1.2-1,2.3-2,3.5-3
			c1.8-1.3,3.7-2,5.8-0.5c0.6,0.4,1.1,1.2,1.7,1.4c7.6,2.5,7.9,8.4,7.5,14.9c-0.3,4.1-0.1,8.2-0.1,12.3c0.3,0.1,0.6,0.2,1,0.3
			c0.3-1.3,0.9-2.6,1-3.9c0.2-5.3,0.5-10.7,0.3-16c-0.1-3.3,0.9-5.2,4.1-5.9c1.1-0.2,2.1-0.7,3.4-1.3c-0.9,9.2-2.2,18.2-0.2,27.4
			c3.1-1,4.6-3,4.8-5.7c0.4-4.1,0.8-8.2,0.7-12.3c-0.1-3.7,1.5-6,4.8-7.9c0.3,8.1-0.9,16,2,23.7
			C365.1,206.4,357.4,183.4,349.1,178.6z"/>
		<path class="st1" d="M191.4,312c1.9-5.5,3.2-10.8,9.3-12.2c4-0.9,7.4,0.4,10.2,4c-10.8,10.3-21.5,20.5-32.6,31.1
			c-5.5-23.5-6.4-46.9-6.8-70.1c2.8-0.9,5.3-1.8,7.8-2.5c1.8-0.6,2.2-1.7,1.9-3.6c-0.6-4.1-0.9-8.3-1.4-12.7c3.1,1.1,3.7,3,3.7,5.6
			c0,6.6,0.3,13.1,0.6,19.6c0.1,2.8-0.8,5-2.9,7.1c-8.3,8-6.8,25.7,2.8,31.9C186,311.4,188.9,311.4,191.4,312z"/>
		<path class="st1" d="M299.7,291.4c1.6-2.6,3-4.8,4.4-6.9c2.3-3.5,4.3-7.3,7.1-10.2c3.1-3.3,7.1-5.8,11.3-9.1
			c0.1,1.7,0.2,2.6,0.2,3.5c-0.4,12-0.6,24-1.5,35.9c-0.2,2.3-2.9,4.6-4.6,6.7c-1.7,2-4,3.5-5.6,5.6c-2.5,3.1-4.9,1.8-7-0.1
			c-2.9-2.5-5.4-5.5-8.2-8c-2.6-2.3-1.5-4.5-0.2-6.7c0.9-1.5,1.9-3.1,3.1-4.2C301.1,295.6,301.7,293.4,299.7,291.4z"/>
		<path class="st1" d="M290.6,65.1c-3.1,11.5-26.9,51.1-32.4,53.4c-0.2-1.6-0.7-3.1-0.4-4.4c1.8-7.1,3.4-14.4,5.9-21.3
			c5-13.7,11-27,13.2-41.6c0.8-5,1.3-10,2.3-15.1c6.5,13.4,2.8,27,0.8,40.7c0.2,0.2,0.5,0.4,0.7,0.6
			C283.9,73.4,287.1,69.4,290.6,65.1z"/>
		<path class="st1" d="M201.4,384.6c1-0.5,2-1,2.9-1.5c3.8,6.7,4.5,7.2,7.5,5.6c2.2,1.2,4.2,2.4,6.5,3.6c0.6-2.3,0.9-3.7,1.4-5
			c1-2.5,2.7-3.9,5.7-3c2.9,0.8,6.3,4.1,6.1,6.2c-0.1,0.6-0.4,1.3-0.8,1.7c-4,3.8-7.9,7.6-12.2,11.1c-0.8,0.6-3,0.3-4-0.4
			c-12.2-8.3-19.5-20.3-24.9-33.7c-0.5-1.2-0.5-2.6-0.5-3.9c-0.1-10.2-0.1-20.4-0.2-30.6c0-5.8,2.3-9.1,8.3-11.3c0,3.9,0,7.7,0,11.5
			c-0.1,4.9-0.4,9.8-0.3,14.6c0,5.1-0.7,10-2.5,14.9c-1.7,4.8-2.2,9.9,2.9,13.8C199,379.7,199.9,382.3,201.4,384.6z"/>
		<path class="st1" d="M194.6,196.5c-4.7,1-7.7,3.5-8.2,8.4c-0.3,0.2-0.6,0.3-0.9,0.5c-1.4-1.8-3.4-3.5-3.8-5.5
			c-0.3-1.3,1.8-3.1,2.8-4.6c0.3-0.4,0.9-0.7,1.3-1.1c4-4,7.2-4.1,11.4-0.3c0.2,0.2,0.4,0.6,0.7,0.7c5.7,1.8,5.9,6.2,5.5,11.1
			c-0.3,3.5-0.3,7.1-0.2,10.6c0.1,2,0.8,4,1.3,6c0.4,0.1,0.8,0.2,1.2,0.3c-3.2,2.5-6.3,5.1-9.7,7.8c-0.6-1.1-1.2-2.2-2-3.7
			c-1.2,0.7-2.6,1.2-3.3,2.1c-2.2,2.5-3.8,2.1-5.3-0.6c-1-1.9-2.4-3.7-3-5.8c-0.7-2.3-2-5.6-1-7.2c2.1-3.3,5.3-6,9.7-6.9
			c-3,8.8-1.6,15.6,3.6,16.1C194.6,215.2,194.6,206,194.6,196.5z"/>
		<path class="st1" d="M243.7,216.4c1.3,1.5,2.3,2.6,3.5,4.1c-1.7,2.8-3.2,5.9-5.3,8.5c-0.6,0.8-3.1,0.8-4.3,0.3
			c-6.5-2.8-9.6-8-10-15c-0.5-8.9,1.4-16.7,9-22.2c3.4-2.5,5.7-2.3,8.9,0.4c3.4,2.9,5.2,9.9,3.4,14c-0.3,0.7-1.6,1.3-2.4,1.3
			c-1.8,0-3.5-0.5-5.3-0.7c-2.8-0.3-4.3,1.2-4.3,3.8c0,4.1,0.1,8.2,0.6,12.3c0.1,1.2,1.7,2.2,2.6,3.4c0.9-1.1,2.1-2,2.5-3.2
			C243.2,221.3,243.3,219.1,243.7,216.4z M244.1,204.2c-1.8-3.9-3.5-7.4-5.2-11c-0.3,0.1-0.6,0.2-0.9,0.3c-0.4,3.7-0.7,7.5-1.1,11.2
			C239.4,204.5,241.5,204.4,244.1,204.2z"/>
		<path class="st1" d="M258.1,417.2c0-4.5,0-8.7,0-12.9c0-10.3-0.1-20.6-0.1-30.9c0-5.4,2.6-8.7,8.5-10.2c0.1,0.8,0.1,1.5,0.2,2.2
			c0.2,13.5,0.5,27,0.7,40.6C267.4,411.6,264.5,415.3,258.1,417.2z"/>
		<path class="st1" d="M253.3,197.6c1.6-2.3,3.4-4.7,5.1-7.1c0.3,0.1,0.6,0.3,0.9,0.4c0.1,1.9,0.2,3.7,0.3,6.4
			c2.5-3.1,4.5-5.7,6.4-8c4.5,2.4,6.1,5.6,6.3,9.2c0.3,8.2,0.1,16.4-0.2,24.6c-0.1,3.7-2.8,6.8-6.8,8.8c2.3-11.8,1.5-23.4,0-35.1
			c-2.6,0.1-3.8,1.4-4.5,3.4c-2.5,7.3-1.6,14.6-0.5,22c0.2,1.2,0.4,2.4,0.7,4.1c-2.6,0.2-4.9,0.5-6.9,0.7c0.2-8.3,0.5-16.3,0.5-24.4
			C254.6,200.6,253.7,198.8,253.3,197.6z"/>
		<path class="st1" d="M221.5,190.7c5.7,2.3,5.7,2.3,5.5,7.7c-0.2,5.1,0,10.2-0.4,15.3c-0.1,1.9-1.1,4-2.4,5.4
			c-3.1,3.4-6.6,6.4-10,9.7c-3.9-2.1-5.9-5.4-6-9.2c-0.3-9.5-0.1-19.1-0.1-28.6c4.7,0.8,6.6,3,6.7,8c0.1,5.1,0,10.2,0,15.3
			c0,0.8-0.2,1.6,0,2.3c0.7,1.7,1.4,4.7,2.4,4.8c2.6,0.3,3.8-2.2,3.9-4.4c0.3-6.2,0.3-12.4,0.4-18.6
			C221.5,195.8,221.5,193.4,221.5,190.7z"/>
		<path class="st1" d="M305.6,167.1c0,15.3,0,30.6,0,45.9c0,3.2-0.1,6.4,0,9.7c0.1,1.8,0.6,3.5,1,5.7c-2.1-0.9-4.5-1.7-6.6-2.9
			c-0.7-0.4-1.3-1.8-1.3-2.7c0-15.8-0.3-31.5,0.3-47.3c0.1-3.1,3.6-6.1,5.5-9.1C304.9,166.7,305.3,166.9,305.6,167.1z"/>
		<path class="st1" d="M216.3,313.2c3.4-0.2,5.3,0.8,6.1,4c3,11.2,3.1,22.5,1.1,33.9c-1.1,6.1-3.1,8.2-8.4,9.1
			C215.4,344.6,215.8,329.1,216.3,313.2z"/>
		<path class="st1" d="M279.9,349.9c0,5.1-0.1,9.4,0,13.7c0.2,9.5,0.4,19.1,0.7,28.6c0.2,5.5-3,8.8-7.7,12.2c0-2.8,0-4.9,0-6.9
			c-0.2-12.7-0.4-25.5-0.4-38.2c0-1.6,1.1-3.4,2.2-4.8C275.8,352.9,277.5,351.9,279.9,349.9z"/>
		<path class="st1" d="M245.6,378.7c1.4,1.8,2.5,3.2,4.2,5.3c0.8-1.3,1.5-2.4,2.5-4.1c0.2,1.1,0.3,1.6,0.3,2
			c0.2,12.1,0.4,24.1,0.5,36.2c0.1,4.4-3.1,6.6-7.7,5.3c-1.2-8.5-2.5-17.2-0.6-25.7c1.2-5.3,3.4-10.3,0.5-15.7
			C244.9,381.4,245.4,380.3,245.6,378.7z"/>
		<path class="st1" d="M289.5,201.4c-0.6-5.9-0.6-5.9-5.3-9.1c-0.5,2.6-1.4,5-1.4,7.4c-0.1,6.5,0.2,13.1,0.5,19.6
			c0.1,1.1,1,2.8,1.8,3c0.9,0.2,2.7-0.6,3.3-1.5c1.4-2.2,2.3-4.7,3.4-7c3,2.4,3,3.3,0.4,6.2c-1.1,1.2-2.1,2.5-3.1,3.8
			c-1.7,2.4-4.5,2.9-6.9,1.1c-4.7-3.6-8.4-7.7-7.5-14.3c0.4-3.2,0.4-6.4,0.7-9.6c0.4-3.6,7-10.7,10.6-11.5c2.4-0.5,7.3,1.2,8.2,3.4
			c0.5,1.2,0.2,3.1-0.5,4.2C292.8,198.5,291.2,199.7,289.5,201.4z"/>
		<path class="st1" d="M209.4,310.1c0,14.5,0,29-0.1,43.5c0,0.8-1.4,2.1-2.4,2.4c-1.3,0.4-2.8,0.1-4.7,0.1c-0.1-1.2-0.2-2.5-0.2-3.8
			c0-9.7,0.1-19.5,0.1-29.2C202.1,316.9,204.1,313.5,209.4,310.1z"/>
		<path class="st1" d="M307.4,269.3c8.2-5,8.2-5,9.1-8.4c-1.4-0.1-2.8-0.3-4.4-0.4c2.5-3.8,6.5-6.6,5.8-12.2
			c-5.5,1.8-10.7,3.5-15.9,5.2c-0.4-0.5-0.9-1-1.3-1.5c2.7-1.6,5.4-3.3,8.1-4.9c-0.4-0.5-0.7-1.1-1.1-1.6c-3.3,0.9-6.7,1.9-10.5,3
			c4.7-4.1,21.4-10.7,25.4-9.8c0,7.2,0.1,14.6-0.1,21.9c0,1.3-1.7,2.6-2.7,3.8c-1.5,1.8-3,3.5-4.5,5.2
			C312.5,272.7,310.4,269.8,307.4,269.3z"/>
		<path class="st1" d="M286.4,388c0-10.4,0-20.7,0-31.1c0-2.1,0.1-4.2,0.4-6.3c0.3-2.5,1.9-3.1,3.7-1.6c1.3,1.1,2.7,2.9,2.9,4.5
			c0.8,6,1.2,12.1,1.5,18.2c0.3,6.8-3.3,11.8-7.4,16.4C287,388.1,286.7,388.1,286.4,388z"/>
		<path class="st1" d="M202.3,140.5c0.8,6.7,1.5,13.1,2.3,19.9c-6.8-1.2-13.4-2.4-20.4-3.7C189.2,150.2,195.6,145.5,202.3,140.5z"/>
		<path class="st1" d="M239.4,420.7c-2.4-1.3-4.8-2.5-7.1-3.9c-0.5-0.3-0.9-1.2-0.9-1.9c-0.1-4.9,0-9.7,0-14.8
			c2.6-0.4,5.1-0.8,8.1-1.2C239.4,406.3,239.4,413.5,239.4,420.7z"/>
		<path class="st1" d="M188.7,267.8c0-6.9,0-13.3,0-20.1c2.5,0.3,4.8,0.6,7.3,0.9c0,5,0.1,9.8-0.1,14.6c0,0.7-1,1.6-1.7,2
			C192.6,266.2,190.8,266.9,188.7,267.8z"/>
		<path class="st1" d="M304.4,143c-2.1,0-3.5,0-4.9,0c0.2-5.6,2.4-6.9,9.2-5.1c0,3.7,0.1,7.6-0.1,11.4c0,0.7-0.8,1.5-1.4,1.9
			c-1.3,1.1-2.8,2-4.5,3.1C303.3,150.6,303.8,147,304.4,143z"/>
		<path class="st1" d="M325.4,140.1c0.2,4.2,0.4,7.8,0.7,11.8c-5.2,0.5-10.2,0.9-16,1.4C315.4,148.7,320.1,144.6,325.4,140.1z"/>
		<path class="st1" d="M202.8,262.2c0-4.5,0-8.6,0-12.9c2.1,0,4.2,0,6.4,0c0,3.9,0,7.7,0,11.8C207.2,261.5,205.2,261.8,202.8,262.2z
			"/>
		<path class="st1" d="M182.5,140.1c0,5.2,0,9.9,0,14.2c-2.2-2.8-4.5-5.3-6.3-8.2c-1.1-1.7-1.4-3.9-2.3-6.5
			C177.4,139.8,179.9,139.9,182.5,140.1z"/>
		<path class="st1" d="M183.7,334.5c0,6.4,0,12.9,0,19.3c-0.3,0.1-0.7,0.2-1,0.3c-1.5-4.9-3.5-9.8-4.3-14.8c-0.2-1.5,3-3.5,4.6-5.3
			C183.3,334.1,183.5,334.3,183.7,334.5z"/>
		<path class="st1" d="M321.7,312.1c-1.1,4.4-2.2,8.8-3.5,14.1c-3-1.7-5.3-3-7.9-4.5c3.8-3.8,7.1-7,10.4-10.2
			C321,311.7,321.4,311.9,321.7,312.1z"/>
		<path class="st1" d="M215,249.2c1.9,0.2,3.2,0.3,4.8,0.5c0.3,3.6,0.6,7,0.9,10.4c-5.5,0.9-5.6,0.8-5.7-4.2
			C215,253.9,215,251.8,215,249.2z"/>
		<path class="st1" d="M278.5,346.1c-3.3,3-6.3,5.7-9.5,8.8C270.1,344.5,269.4,343.8,278.5,346.1z"/>
		<path class="st1" d="M225.8,412.1c-2.4-2.3-5.7-4.3-5.4-5.5c0.5-2.2,3.1-3.8,5.4-6.3C225.8,404.6,225.8,407.8,225.8,412.1z"/>
		<path class="st1" d="M299.5,367.9c0-3.6,0-7,0-10.5C304.5,358.8,304.5,362.3,299.5,367.9z"/>
		<path class="st1" d="M315.2,137.3c2.2,0,4.2,0,6.3,0c-2.1,2.1-4.1,4.1-6.3,6.2C315.2,141.5,315.2,139.5,315.2,137.3z"/>
		<path class="st1" d="M188.3,147c1-7.6,1-7.6,6.6-7C192.7,142.3,190.8,144.3,188.3,147z"/>
		<path class="st2" d="M109.9,162.3c0-3.5-0.3-6.4,0.1-9.2c0.2-1.2,1.8-2.4,2.9-3.2c5.1-3.5,11-4.6,17-4.5c9,0.2,17.9,0.8,26.8,1.9
			c5.3,0.7,10.4,2.7,15.6,4.1c0,34.3,0,68.5,0,103c-12.8-0.5-25.1-1.1-37.3-1.6c0-14.8,0-29.8,0-44.7c3.9-0.8,6.3,0.3,7.9,3.4
			c4.4,8.8,3.5,18,3.2,26.9c-1.9,1.1-3.3,1.9-5,2.8c9.2,1.9,17.8,3.6,26.6,5.4c-0.8-15.1-2.9-30.2-17.9-40.6c2.1-0.7,2.8-1,3.6-1.1
			c8.1-1.7,12.3-7.2,13.7-14.8c2.2-12.1-1.2-22.7-9.7-31.7c-0.5-0.5-1.2-1-1.9-1.3c-5.3-2.2-10.7-4.9-16.5-3.7
			c-6.6,1.4-12.9,4.1-19.4,6.1C116.7,160.4,113.5,161.2,109.9,162.3z"/>
		<path class="st2" d="M244.7,253.8c-4.8,15.5-11.5,29.8-8.8,46c-4.4-0.2-6.3-2.2-6.9-6.6c-0.5-3.8-0.9-7.6-1.7-11.4
			c-0.2-1.2-1.2-2.5-2.2-3.1c-3.1-1.8-6.3-3.5-9.6-5c-0.7-0.3-2.2-0.1-2.5,0.4c-1.9,2.9-4.9,3.5-8,4c-2,0.3-3.9,0.7-6.2,1.1
			c0.1-1.2,0.2-2.2,0.3-3.4c-4.3,0.3-5.3,3.5-6,6.9c-2.9-1-3.2-3-2.2-5.3c1.5-3.8,4.8-5.5,8.4-6.9c8.1-3.1,16.3-3.2,24.5-0.3
			c1.7,0.6,3.6,1,5.5,1.5c2.1-3.6,1.7-7.4,1.3-11.1c-0.3-3.4-0.7-6.9-1.5-10.2c-0.6-2.6,0.7-4,2.6-4.4c8.4-1.8,16.8-2.9,25.4-1.7
			c0.3,0.4,0.7,0.8,1,1.2c-1.6,1.5-3.1,3-4.2,4.1c3.1,0.7,6-0.2,8.9-3.6c2.8-3.3,6.9-4.7,13.2-4c-0.6,3.6-1.3,7.1-1.9,10.6
			c-0.7,4.9-1.4,9.8-2,14.7c-0.1,0.9-0.1,1.8-0.3,2.6c-0.8,3.7-2.5,4.6-6,3.2c-1-0.4-2-0.9-3.5-1.6c4.9-4.5,5.2-9.7,2.6-14.8
			c1.6-1.8,3-3.2,4.7-5.1c-7.2-0.4-14,5.2-16.1,12.4c-1,3.5-2.1,7-3,10.5c-0.8,2.9-2.8,4-6.2,4.9c0.6-2.9,0.9-5.4,1.5-7.8
			C247.2,265.8,248.4,260.1,244.7,253.8z"/>
		<path class="st2" d="M124.7,254.4c-2.8,0.9-5.4,1.8-8.1,2.4c-3.2,0.8-4.9-0.4-5.4-3.7c-2.5-15.9-2.3-31.8-1.5-47.8
			c0.1-2.3,2.6-4.7,4.4-6.6c5.2-5.7,4.4-15.3-2.3-20.6c-2.7-2.1-2.6-4.8-1.9-7.5c0.2-0.9,2.2-1.8,3.4-1.7c2,0.1,4.3,0.4,4.7,3.2
			c0.8,6,2,12,2.4,18.1c1.5,20.2,2.9,40.5,4.2,60.7C124.8,251.9,124.7,252.9,124.7,254.4z"/>
		<path class="st2" d="M377,191.6c3.7,2.9,6.9,4.8,9.2,7.4c3.5,4,2.7,8.5,0.5,13c-7.5,15.1-10.8,31.3-11.3,48.1
			c0,0.5-0.2,1.1-0.3,1.9c-8.7-3.4-14.8,4.4-22.8,5.2c0-3.1,0-5.9,0-8.9c2.3,0.3,4.3,0.7,6.4,0.8c4.9,0.2,8.6-2.5,9.5-7.3
			c0.7-3.7,0.6-7.5,0.9-11.2c1-11.7,1.6-23.4,3.1-35C372.7,201,375.2,196.7,377,191.6z"/>
		<path class="st2" d="M236.9,394.3c0.8-8.1-0.9-11.5-7.1-13.6c-8.8-3.1-9.5-4.3-15.8,4c-0.9-2.5-1.8-4.6-2.9-7.5
			c-1.1,2.1-2,3.7-3.5,6.3c0-3.6,0-6.3,0-9.4c-1.9,1-3.6,1.9-5.4,2.8c-0.7-4.1,2-8.8,5.8-9.7c1.1-0.3,2.5,0.8,3.7,1.3
			c1.5,0.6,3,1.7,4.6,1.8c5.3,0.3,10.6,0.6,15.2,3.6c0.5,0.3,1.2,0.4,1.4,0.5c7.7-6.8,7.5-16,8.9-24.8c0.9-5.7,2.7-11.4,4.4-17
			c0.5-1.6,1.8-3,2.3-3.9c0.3,3.1,0.7,6.5,0.9,10c0.1,1.3,0.1,2.7-0.3,3.9c-2.6,8.5-5,17.2-8.1,25.5c-2.3,6.3-2.2,12.2,0.2,18.4
			C243.3,391.3,242.4,392.7,236.9,394.3z"/>
		<path class="st2" d="M135.4,204c-0.4-11.6-0.9-23-1.3-34.4c0-1,0.4-2,0.7-2.9c0.9-2.4,2-5,5-5.1c2.9-0.1,3.9,2.3,5.1,4.5
			c5,8.6,6.6,17.7,4.4,27.5C147.6,201.2,143.8,204.2,135.4,204z"/>
		<path class="st2" d="M352,236.1c7.7-0.3,12.7,8.3,12.7,13.2c-0.1,3.7-2.1,5.5-5.8,4.8c-1.6-0.3-3.3-0.7-4.7-1.5
			c-1-0.6-2-1.9-2.1-2.9C351.9,245.3,352,240.8,352,236.1z"/>
		<path class="st2" d="M197.4,286.1c-3.7,5.2-7.3,10.4-10.9,15.6c-3.4-1.8-4.9-5.7-3.4-10c0.8-2.3,2.4-4.4,3.8-6.5
			c0.4-0.6,1.7-0.9,2.5-0.8C191.8,284.8,194.2,285.5,197.4,286.1z"/>
		<path class="st2" d="M105.5,172.6c1.1,3.1,0,4.6-1.5,6.3c-1.7,1.8-3.1,4-3.9,6.3c-0.8,2.3-0.5,4.9,1.9,6.5
			c3.3,2.4,3.3,2.4,3.5,6.5c-4.8,0.8-7.4-0.8-8.7-5.3c-1.7-5.9-2.1-11.7,2.9-16.3C101.3,175.1,103.4,174,105.5,172.6z"/>
		<path class="st2" d="M360.6,275.2c0-1.8,0-3.7,0-5.7c0-0.2,0-0.5,0.1-0.7c1.1-2.5,10-4.3,11.9-2.5c2.6,2.5,2.1,5.8-1.2,7
			c-1.5,0.6-3.2,0.8-4.8,1C364.7,274.7,362.8,274.9,360.6,275.2z"/>
		<path class="st2" d="M229.4,358c2.4-8.5,4.9-16.9,7.4-25.6c3,3.1,2.9,6.1,1.2,9.4c-2.2,4.4-3.9,9.1-6,13.6c-0.5,1.1-1.5,2-2.2,3
			C229.6,358.3,229.5,358.2,229.4,358z"/>
		<path class="st2" d="M362.8,294.3c-0.5-2.6-1-5.2-1.4-7.8c-0.4-2.7-0.4-5.3,4.1-6c-0.5,4.7-0.9,9.3-1.4,13.9
			C363.7,294.4,363.3,294.4,362.8,294.3z"/>
		<path class="st2" d="M244.1,204.2c-2.7,0.2-4.7,0.3-7.2,0.5c0.4-3.8,0.7-7.5,1.1-11.2c0.3-0.1,0.6-0.2,0.9-0.3
			C240.6,196.8,242.3,200.3,244.1,204.2z"/>
	</g>
</g>
</svg>
